Coordinates
version=1
nRows=24
nColumns=24
inDegrees=yes

Units are S.I. units (second, meters, Newtons, ...)
Angles are in degrees.

endheader
time	pelvis_tilt	pelvis_list	pelvis_rotation	pelvis_tx	pelvis_ty	pelvis_tz	hip_flexion_r	hip_adduction_r	hip_rotation_r	knee_angle_r	ankle_angle_r	subtalar_angle_r	mtp_angle_r	hip_flexion_l	hip_adduction_l	hip_rotation_l	knee_angle_l	ankle_angle_l	subtalar_angle_l	mtp_angle_l	lumbar_extension	lumbar_bending	lumbar_rotation
      1.54500000	     23.52867040	      4.03943005	     -2.92591546	      0.71717534	      0.96316218	      0.00319175	    -35.02051801	     -5.95439574	     -7.41296835	    -33.67391911	     -7.19013358	      1.60323235	     56.93827201	     -9.08949627	      7.41410987	    -16.38803010	     -9.44595404	      0.09652223	      9.95051608	     17.37522986	    -29.58692238	     -9.20485107	     -2.82460320
      1.55000000	     23.56579775	      4.33824941	     -3.17598905	      0.72328793	      0.96385730	      0.00282799	    -34.22904531	     -6.60461439	     -7.52294776	    -35.37897097	     -8.76731988	      1.31105094	     56.86244460	     -9.56543747	      7.84724669	    -16.38501021	     -9.35463765	      0.40790653	     10.01355909	     17.32464053	    -29.52627371	     -9.65197880	     -2.85978908
      1.55500000	     23.56590826	      4.55573016	     -3.39402979	      0.72922367	      0.96454139	      0.00239841	    -33.36879737	     -7.15341933	     -7.56868467	    -37.04023121	    -10.36625034	      0.69826156	     57.11872427	    -10.01925131	      8.21018427	    -16.22672451	     -9.20804173	      0.76361771	      9.79920445	     16.75013200	    -29.44447271	     -9.99532523	     -2.82103516
      1.56000000	     23.59256036	      4.77630171	     -3.65064494	      0.73520287	      0.96525331	      0.00203278	    -32.53732627	     -7.73159830	     -7.57879478	    -38.63409677	    -11.80873204	      0.23434402	     57.26918582	    -10.53693072	      8.58722871	    -16.16469005	     -8.99058613	      1.10167051	      9.79055054	     16.10108547	    -29.37573426	    -10.35815522	     -2.77673542
      1.56500000	     23.62777542	      4.99079348	     -3.88820400	      0.74118159	      0.96598522	      0.00164228	    -31.72424274	     -8.30285543	     -7.60316840	    -40.15532242	    -13.07791771	     -0.02880501	     57.15707803	    -11.08857300	      8.95943400	    -16.10580474	     -8.71463165	      1.30847533	      9.88275665	     16.01450434	    -29.31610678	    -10.70335314	     -2.77319270
      1.57000000	     23.66267835	      5.14594239	     -4.14189252	      0.74704811	      0.96672784	      0.00128428	    -30.88870849	     -8.81224769	     -7.54647072	    -41.62680396	    -14.17044817	     -0.43029065	     56.99154089	    -11.64404477	      9.28157934	    -16.05068306	     -8.41939937	      1.52076532	      9.83476747	     15.88753194	    -29.26088553	    -10.99197125	     -2.69867555
      1.57500000	     23.69193163	      5.25374070	     -4.38737405	      0.75283023	      0.96748037	      0.00092379	    -30.03807802	     -9.26183229	     -7.44750155	    -43.03928208	    -15.04277825	     -0.84942697	     56.76739382	    -12.20076086	      9.55888077	    -15.97120952	     -8.10317245	      1.72630109	      9.73072010	     15.73095244	    -29.20510533	    -11.22624663	     -2.59627958
      1.58000000	     23.64888251	      5.33422612	     -4.53846124	      0.75844094	      0.96815027	      0.00039418	    -29.09791246	     -9.63518770	     -7.39167034	    -44.44567932	    -15.51283743	     -1.08477051	     55.20282468	    -12.68744167	      9.80372992	    -15.60813738	     -7.76127933	      2.04254438	      9.36357887	     14.46997711	    -29.10490004	    -11.38050162	     -2.54984686
      1.58500000	     23.72396600	      5.35535474	     -4.82283177	      0.76410194	      0.96896754	      0.00014030	    -28.28232716	    -10.00016245	     -7.19181182	    -45.72540148	    -15.91472682	     -1.41795272	     55.02501512	    -13.28633349	      9.99592541	    -15.68725503	     -7.46006670	      2.27233452	      9.40763084	     14.41264396	    -29.09981305	    -11.54371253	     -2.37215595
      1.59000000	     23.74274771	      5.33114451	     -5.06705193	      0.76965480	      0.96974560	     -0.00016386	    -27.39546109	    -10.28515126	     -6.97883236	    -46.96229327	    -16.05055172	     -1.76005497	     54.76788692	    -13.83134788	     10.13628017	    -15.66666375	     -7.13430954	      2.46353075	      9.36949707	     14.32212937	    -29.05056879	    -11.63728989	     -2.19188918
      1.59500000	     23.72857695	      5.27090409	     -5.25653371	      0.77505669	      0.97047907	     -0.00056321	    -26.45868133	    -10.50081847	     -6.77707701	    -48.19729823	    -15.70849864	     -1.70274513	     52.13106472	    -14.32820830	     10.23201973	    -15.51017304	     -6.83292828	      2.77468059	      9.18465077	     13.37846998	    -28.99151916	    -11.66133927	     -2.03492825
      1.60000000	     23.74543637	      5.18459466	     -5.47922440	      0.78044320	      0.97125580	     -0.00084751	    -25.56217139	    -10.69021575	     -6.55519853	    -49.31509759	    -15.40540765	     -2.01071274	     52.05105441	    -14.85093593	     10.29735352	    -15.51804875	     -6.54431339	      2.97769835	      9.19934916	     13.35704998	    -28.96211689	    -11.68124886	     -1.84479116
      1.60500000	     23.72787626	      5.06338654	     -5.69299308	      0.78573697	      0.97199700	     -0.00114478	    -24.61681727	    -10.82657959	     -6.31100485	    -50.38257422	    -14.92039585	     -2.23155947	     51.88794775	    -15.32615248	     10.32444793	    -15.51595097	     -6.27003382	      3.16882271	      9.14822888	     13.31406357	    -28.90614674	    -11.65547466	     -1.63163118
      1.61000000	     23.65379301	      4.95844956	     -5.87531058	      0.79092894	      0.97263137	     -0.00152447	    -23.58344978	    -10.96988386	     -6.11287566	    -51.47126883	    -14.07764563	     -2.06054414	     49.53549314	    -15.73451674	     10.36465375	    -15.39072335	     -5.99406638	      3.42362325	      8.96586607	     12.78143186	    -28.80547981	    -11.62260373	     -1.44520476
      1.61500000	     23.63313334	      4.77497202	     -6.08557594	      0.79608163	      0.97337347	     -0.00177788	    -22.63301857	    -11.00987582	     -5.85166881	    -52.40048807	    -13.32560070	     -2.27284750	     49.49330393	    -16.18353661	     10.31816380	    -15.46644881	     -5.76571478	      3.62233683	      8.99905035	     12.77777674	    -28.76533677	    -11.52727337	     -1.21001161
      1.62000000	     23.57986627	      4.59453631	     -6.28012617	      0.80118133	      0.97404842	     -0.00203492	    -21.64174497	    -11.03700305	     -5.61875082	    -53.28450034	    -12.46230964	     -2.40643864	     49.37405908	    -16.59649927	     10.26871020	    -15.51577310	     -5.53083310	      3.81727839	      9.01840437	     12.76053729	    -28.69670130	    -11.42904952	     -0.97390639
      1.62500000	     23.45895808	      4.43207671	     -6.47919778	      0.80623281	      0.97458627	     -0.00233134	    -20.54483384	    -11.08432977	     -5.40081845	    -54.18988070	    -11.31131691	     -2.13792122	     46.92213315	    -16.92749756	     10.23729596	    -15.53455811	     -5.30710463	      4.12928895	      9.06479493	     12.31953168	    -28.55948904	    -11.33627452	     -0.71651052
      1.63000000	     23.40050144	      4.21611386	     -6.66043469	      0.81122847	      0.97524306	     -0.00256911	    -19.56337465	    -11.03420935	     -5.18468973	    -54.91630691	    -10.34385610	     -2.31613230	     46.92969455	    -17.32246533	     10.14416115	    -15.62264804	     -5.09747682	      4.30836370	      9.10462892	     12.32004432	    -28.50395001	    -11.18962324	     -0.48852057
      1.63500000	     23.24623449	      4.03422416	     -6.87737232	      0.81622777	      0.97571086	     -0.00279843	    -18.43853772	    -11.03019730	     -4.96426453	    -55.64600206	     -9.37226989	     -2.33877442	     46.75327875	    -17.61154681	     10.09173942	    -15.73369190	     -4.87809306	      4.57238113	      9.20435259	     12.30875566	    -28.33437966	    -11.07882522	     -0.18222277
      1.64000000	     23.11278414	      3.85932927	     -7.01228492	      0.82116087	      0.97618215	     -0.00304765	    -17.37457680	    -10.98128845	     -4.83458429	    -56.30832489	     -8.09428140	     -2.16510341	     44.90178539	    -17.88627837	     10.00431809	    -15.82297951	     -4.75022385	      4.92394130	      9.47695234	     12.01733060	    -28.21401250	    -10.94940889	     -0.01482329
      1.64500000	     23.01340089	      3.61754129	     -7.20984261	      0.82611674	      0.97673939	     -0.00319950	    -16.36671464	    -10.84667859	     -4.61279981	    -56.81694947	     -7.11703799	     -2.36238111	     44.84821496	    -18.26543177	      9.89490384	    -15.97302774	     -4.47462766	      5.03253055	      9.47036857	     11.99265346	    -28.11757278	    -10.77643480	      0.25382018
      1.65000000	     22.84126846	      3.43860582	     -7.39412747	      0.83099774	      0.97710006	     -0.00340371	    -15.25423513	    -10.77321770	     -4.45098836	    -57.32802168	     -6.09490923	     -2.41916385	     44.60329739	    -18.52414798	      9.82872978	    -16.08482297	     -4.27119608	      5.29328224	      9.64322279	     11.98957984	    -27.95160413	    -10.64905486	      0.52952654
      1.65500000	     22.67561851	      3.24430724	     -7.55530235	      0.83588848	      0.97747299	     -0.00357158	    -14.18366350	    -10.64450689	     -4.30685408	    -57.73723026	     -5.04018640	     -2.50992377	     44.18665280	    -18.79457396	      9.73781391	    -16.22624773	     -4.06736299	      5.53327592	      9.82842890	     11.96872600	    -27.79882948	    -10.50090657	      0.75058151
      1.66000000	     22.56181939	      3.05298921	     -7.63501108	      0.84084649	      0.97789579	     -0.00380136	    -13.23520442	    -10.49200509	     -4.28878303	    -58.04917310	     -3.74066133	     -2.38897034	     41.66270065	    -19.11989969	      9.62114872	    -16.37105250	     -3.89536775	      5.84198091	     10.25641796	     11.70059870	    -27.71026120	    -10.32617343	      0.86725934
